<svg id="Layer_1" data-name="Layer 1" xmlns="http://www.w3.org/2000/svg" viewBox="0 0 77 77"><defs><style>.cls-1{fill:none;stroke:#000;stroke-miterlimit:10;stroke-width:1.13px;}</style></defs><title>Icon_PriceMatchGuarantee copy</title><polyline class="cls-1" points="25.28 22.45 20.02 27.71 20.02 62.08 56.98 62.08 56.98 27.71 51.72 22.45"/><line class="cls-1" x1="20.02" y1="27.71" x2="56.98" y2="27.71"/><polyline class="cls-1" points="20.02 62.08 25.28 56.82 51.72 56.82 56.98 62.08"/><polyline class="cls-1" points="25.48 27.62 25.48 10.89 51.52 10.89 51.52 27.62"/><line class="cls-1" x1="38.5" y1="27.71" x2="38.5" y2="56.81"/><path d="M32.92,17.71a1,1,0,0,0-1.15-.91c-.62,0-1.14.27-1.14.91,0,1.4,3.51.33,3.51,2.65a1.94,1.94,0,0,1-2.06,2v1.05h-.56V22.33a2.08,2.08,0,0,1-2.14-2h1.1a1.17,1.17,0,0,0,1.3,1.21c.64,0,1.3-.33,1.3-1.08,0-1.48-3.51-.32-3.51-2.66A1.82,1.82,0,0,1,31.52,16v-.86h.56V16A1.91,1.91,0,0,1,34,17.71Z"/><path d="M35.94,17.69l1.31-1.55h.86v6H37.05V17.69h0l-.5.6Z"/><path d="M46.56,17.41h0L44.8,22.17h-.88L42.2,17.41h0v4.76H41.12v-6h1.64l1.6,4.42L46,16.14h1.62v6H46.56Z"/></svg>