<svg id="Layer_1" data-name="Layer 1" xmlns="http://www.w3.org/2000/svg" viewBox="0 0 77 77"><defs><style>.cls-1,.cls-2{fill:none;stroke-width:1.13px;}.cls-1{stroke:#010101;}.cls-2{stroke:#000;stroke-miterlimit:10;}</style></defs><title>Icon_InsuranceGuarantee_Alt copy 9</title><path id="Path" class="cls-1" d="M60.07,37.29V23H24.78"/><path id="Path-2" data-name="Path" class="cls-1" d="M16.93,50.41V23a5.89,5.89,0,0,1,5.89-5.88h2V44.53h-2a5.88,5.88,0,1,0,0,11.76H60.07v-6.4"/><circle class="cls-2" cx="60.1" cy="43.59" r="6.3"/><polyline class="cls-2" points="56.95 43.59 60.1 46.74 69.55 34.14"/><rect class="cls-2" x="31.11" y="30.27" width="6.97" height="6.97"/><polyline class="cls-2" points="31.11 37.29 31.11 48.99 48.19 48.99 48.19 30.27 45.9 30.27 41.2 34.22"/><polyline class="cls-2" points="41.22 48.99 41.22 42.02 48.19 42.02 48.19 48.99 41.22 48.99"/><line class="cls-2" x1="31.11" y1="44.49" x2="41.22" y2="44.49"/></svg>