<svg width="38" height="39" viewBox="0 0 38 39" fill="none" xmlns="http://www.w3.org/2000/svg">
<path fill-rule="evenodd" clip-rule="evenodd" d="M30.2368 4.49156C30.2368 2.36304 31.9502 0.627197 34.0809 0.627197C36.0648 0.627197 37.6868 2.13205 37.901 4.05755C37.9643 4.18882 37.9998 4.33604 37.9998 4.49156V5.92376C37.9998 6.47604 37.5521 6.92376 36.9998 6.92376H31.2368C30.6845 6.92376 30.2368 6.47604 30.2368 5.92376V4.49156ZM35.9998 4.87185C35.9516 4.75461 35.925 4.62619 35.925 4.49156C35.925 3.45419 35.0937 2.6272 34.0809 2.6272C33.0681 2.6272 32.2368 3.4542 32.2368 4.49156V4.92376H35.9998V4.87185Z" fill="#E73439"/>
<path fill-rule="evenodd" clip-rule="evenodd" d="M4.26611 6.07456C4.26611 3.11689 6.65307 0.702637 9.60706 0.702637H34.0062C34.5585 0.702637 35.0062 1.15035 35.0062 1.70264C35.0062 2.25492 34.5585 2.70264 34.0062 2.70264C32.9935 2.70264 32.1621 3.52964 32.1621 4.567V25.2206C32.1621 25.6746 31.8563 26.0716 31.4173 26.1875C30.9784 26.3033 30.5164 26.109 30.2924 25.7141L29.993 25.1865C29.9788 25.1614 29.9657 25.1358 29.9537 25.1096C29.9106 25.0155 29.8259 24.958 29.7027 24.958C29.5795 24.958 29.4948 25.0155 29.4517 25.1096L29.4436 25.1267L28.2589 27.5877C27.9259 28.3787 27.1781 28.7375 26.5377 28.845C26.5287 28.8465 26.5197 28.8479 26.5107 28.8492L23.8201 29.2255C23.8197 29.2256 23.8193 29.2257 23.8188 29.2257C23.7286 29.2392 23.6314 29.303 23.5812 29.4581C23.5325 29.6081 23.5579 29.7671 23.6603 29.8895L25.2106 31.4508C25.4952 31.7374 25.5794 32.1669 25.4242 32.5397C25.269 32.9125 24.9048 33.1554 24.501 33.1554H5.26611C4.71383 33.1554 4.26611 32.7077 4.26611 32.1554V6.07456ZM30.6381 2.70264H9.60706C7.77103 2.70264 6.26611 4.20803 6.26611 6.07456V31.1554H22.112C20.9936 29.7909 21.6437 27.5181 23.5353 27.2459L23.5392 27.2454L26.2176 26.8707C26.3237 26.8516 26.3859 26.821 26.4135 26.8025C26.417 26.8001 26.4197 26.7981 26.4217 26.7966C26.4287 26.7797 26.4362 26.7631 26.4441 26.7467L27.638 24.2667C28.1175 23.2323 29.1953 22.8111 30.1621 23.0031V4.567C30.1621 3.89173 30.3346 3.25598 30.6381 2.70264Z" fill="#E73439"/>
<path fill-rule="evenodd" clip-rule="evenodd" d="M0 32.0801C0 31.5278 0.447715 31.0801 1 31.0801H24.501C24.7675 31.0801 25.0229 31.1864 25.2106 31.3755L25.5849 31.7524C26.083 32.2541 26.3694 32.9449 26.2361 33.7509L25.8004 36.3836C25.7966 36.9327 25.3504 37.3766 24.8004 37.3766H3.84407C1.71335 37.3766 0 35.6408 0 33.5123V32.0801ZM2 33.0801V33.5123C2 34.5496 2.83133 35.3766 3.84407 35.3766H23.9398L24.2629 33.4244C24.2745 33.3542 24.2659 33.3165 24.2581 33.294C24.2491 33.2681 24.2267 33.2231 24.1656 33.1616L24.0847 33.0801H2Z" fill="#E73439"/>
<path fill-rule="evenodd" clip-rule="evenodd" d="M10.0288 10.2957C10.0288 9.74337 10.4765 9.29565 11.0288 9.29565H25.3989C25.9512 9.29565 26.3989 9.74337 26.3989 10.2957C26.3989 10.8479 25.9512 11.2957 25.3989 11.2957H11.0288C10.4765 11.2957 10.0288 10.8479 10.0288 10.2957Z" fill="#E73439"/>
<path fill-rule="evenodd" clip-rule="evenodd" d="M10.0288 19C10.0288 18.4477 10.4765 18 11.0288 18H25.3989C25.9512 18 26.3989 18.4477 26.3989 19C26.3989 19.5523 25.9512 20 25.3989 20H11.0288C10.4765 20 10.0288 19.5523 10.0288 19Z" fill="#E73439"/>
<path fill-rule="evenodd" clip-rule="evenodd" d="M10.0288 14.6676C10.0288 14.1153 10.4765 13.6676 11.0288 13.6676H18.2138C18.7661 13.6676 19.2138 14.1153 19.2138 14.6676C19.2138 15.2199 18.7661 15.6676 18.2138 15.6676H11.0288C10.4765 15.6676 10.0288 15.2199 10.0288 14.6676Z" fill="#E73439"/>
<path fill-rule="evenodd" clip-rule="evenodd" d="M10.0288 23.3361C10.0288 22.7838 10.4765 22.3361 11.0288 22.3361H18.2138C18.7661 22.3361 19.2138 22.7838 19.2138 23.3361C19.2138 23.8883 18.7661 24.3361 18.2138 24.3361H11.0288C10.4765 24.3361 10.0288 23.8883 10.0288 23.3361Z" fill="#E73439"/>
<path fill-rule="evenodd" clip-rule="evenodd" d="M29.7779 24.958C29.6547 24.958 29.57 25.0154 29.5269 25.1096L29.5188 25.1267L28.334 27.5877C28.001 28.3786 27.2533 28.7375 26.6128 28.845C26.6039 28.8465 26.5948 28.8479 26.5858 28.8492L23.886 29.2268C23.8008 29.2383 23.7513 29.2677 23.7193 29.296C23.6836 29.3275 23.6513 29.3746 23.6321 29.4366C23.5917 29.5668 23.6228 29.7006 23.7141 29.7925L25.66 31.7523C26.1582 32.254 26.4446 32.9448 26.3112 33.7508L25.8621 36.4644C25.8597 36.4794 25.8568 36.4944 25.8537 36.5093C25.8397 36.575 25.8483 36.6207 25.8623 36.6549C25.878 36.6934 25.9076 36.7333 25.9517 36.7656C26.0358 36.827 26.146 36.8462 26.2699 36.7789L26.2749 36.7762L28.6502 35.5054C29.3612 35.0884 30.1701 35.1341 30.8638 35.4834C30.8712 35.4871 30.8785 35.4909 30.8858 35.4948L33.2808 36.7762L33.2858 36.7789C33.3613 36.8199 33.4142 36.8235 33.4472 36.8207C33.4843 36.8175 33.5255 36.8032 33.5662 36.7727C33.6467 36.7124 33.7097 36.6005 33.6911 36.4498L33.2467 33.7639C33.1077 33.0277 33.3953 32.2563 33.8957 31.7523L35.8416 29.7925C35.9129 29.7207 35.9503 29.6027 35.9013 29.4544C35.8525 29.307 35.755 29.2396 35.6616 29.2257C35.6612 29.2256 35.6608 29.2256 35.6604 29.2255L33.0277 28.8573C32.0892 28.8208 31.5509 28.153 31.2763 27.6922C31.2612 27.6668 31.2472 27.6408 31.2344 27.6142L30.0369 25.1267L30.0288 25.1096C29.9857 25.0154 29.901 24.958 29.7779 24.958ZM31.8425 24.2666C31.0336 22.5218 28.522 22.5218 27.7132 24.2666L26.5192 26.7466C26.5113 26.7631 26.5039 26.7797 26.4969 26.7966C26.4948 26.7981 26.4921 26.8001 26.4886 26.8025C26.4611 26.821 26.3989 26.8516 26.2928 26.8707L23.6168 27.245C21.5984 27.5184 21.0219 29.9196 22.2948 31.2016L24.2408 33.1615C24.3019 33.223 24.3243 33.268 24.3333 33.2939C24.3411 33.3164 24.3497 33.3541 24.3381 33.4243L23.8922 36.1182C23.506 38.0289 25.5365 39.4491 27.2207 38.5385L29.6134 37.2583C29.6288 37.2501 29.644 37.2414 29.6589 37.2324C29.6897 37.2138 29.7658 37.1723 29.9551 37.2651L32.335 38.5385C34.1206 39.5043 35.9203 37.9236 35.6702 36.1607L35.6667 36.1379L35.2177 33.4243C35.2159 33.4138 35.214 33.4032 35.2119 33.3928C35.2119 33.3928 35.212 33.3934 35.2119 33.3928C35.2122 33.3927 35.209 33.3632 35.2272 33.3082C35.2466 33.2495 35.2799 33.1968 35.3149 33.1615L37.2609 31.2016C38.5813 29.8718 37.8166 27.5151 35.9452 27.2459L33.2469 26.8685C33.2104 26.8633 33.1736 26.8603 33.1367 26.8592C33.1265 26.8499 33.1114 26.8347 33.0922 26.8112C33.0694 26.7834 33.0436 26.7475 33.015 26.7021L31.8425 24.2666Z" fill="#E73439"/>
</svg>
