<svg width="36" height="45" viewBox="0 0 36 45" fill="none" xmlns="http://www.w3.org/2000/svg">
<path fill-rule="evenodd" clip-rule="evenodd" d="M25.197 23.6692C24.8679 23.6692 24.5125 23.8164 24.2578 24.073L17.4889 30.8902C17.3012 31.0793 17.0457 31.1856 16.7793 31.1856C16.5128 31.1856 16.2574 31.0793 16.0697 30.8902L13.3795 28.1808C13.1248 27.9243 12.7694 27.777 12.4402 27.777C12.1111 27.777 11.7557 27.9242 11.501 28.1808C11.2462 28.4374 11.0972 28.7987 11.0972 29.1368C11.0972 29.4749 11.2462 29.8362 11.501 30.0928L15.8401 34.4628C16.0948 34.7194 16.4502 34.8666 16.7793 34.8666C17.0834 34.8666 17.4446 34.7386 17.8053 34.3754L26.1362 25.985C26.3911 25.7283 26.5401 25.3671 26.5401 25.029C26.5401 24.6909 26.3911 24.3297 26.1362 24.073C25.8815 23.8164 25.5261 23.6692 25.197 23.6692ZM22.8386 22.6638C23.4516 22.0464 24.3112 21.6692 25.197 21.6692C26.0828 21.6692 26.9424 22.0464 27.5555 22.6638C28.1684 23.2812 28.5401 24.1435 28.5401 25.029C28.5401 25.9145 28.1684 26.7768 27.5555 27.3942L19.2245 35.7846C18.5438 36.4702 17.6901 36.8666 16.7793 36.8666C15.8935 36.8666 15.0339 36.4895 14.4208 35.872L10.0818 31.502C9.46883 30.8847 9.09717 30.0223 9.09717 29.1368C9.09717 28.2513 9.46884 27.3889 10.0818 26.7716C10.6949 26.1541 11.5544 25.777 12.4402 25.777C13.326 25.777 14.1856 26.1541 14.7987 26.7716L14.1135 27.452L14.7987 26.7716L16.7793 28.7663L22.8386 22.6638L22.8386 22.6638ZM22.8386 22.6638L23.5482 23.3684L22.8386 22.6638" fill="#0078BF"/>
<path fill-rule="evenodd" clip-rule="evenodd" d="M15.274 7.6187C16.8 6.20995 19.2953 6.20995 20.8212 7.6187L20.8305 7.62731L33.588 19.7089C34.2914 20.3601 34.8831 21.3052 35.2979 22.2581C35.7136 23.2133 36 24.2877 36 25.235V28.1116L34 28.1125V25.235C34 24.6475 33.8102 23.8516 33.464 23.0563C33.1178 22.2609 32.6638 21.5776 32.2264 21.1738L32.2171 21.1652L19.4603 9.08436C18.7009 8.38768 17.3925 8.38806 16.6337 9.08549L3.7736 21.1739C3.33625 21.5776 2.88215 22.2609 2.53596 23.0563C2.18979 23.8516 2 24.6475 2 25.235V28.2084H0V25.235C0 24.2877 0.286399 23.2133 0.702134 22.2581C1.11716 21.3046 1.70943 20.3588 2.41341 19.7076L15.274 7.6187Z" fill="#0078BF"/>
<path fill-rule="evenodd" clip-rule="evenodd" d="M15.274 1.57585C16.8 0.167099 19.2953 0.167099 20.8212 1.57585L20.8305 1.58447L33.5879 13.666C34.2844 14.3106 34.8772 15.2259 35.2958 16.1746C35.7157 17.1262 36 18.2008 36 19.1921V40.9654C36 43.0457 34.2256 44.843 32.1429 44.843H3.85714C1.65765 44.843 0 43.0238 0 40.9654V19.0962C0 18.149 0.286399 17.0745 0.702134 16.1193C1.11746 15.1651 1.7103 14.2186 2.41496 13.5674C2.41561 13.5668 2.41625 13.5662 2.41691 13.5656L15.274 1.57585ZM16.6324 3.04383C16.6318 3.04434 16.6313 3.04485 16.6307 3.04536L3.77358 15.0351C3.33623 15.4388 2.88215 16.1221 2.53596 16.9175C2.18979 17.7128 2 18.5088 2 19.0962V40.9654C2 41.9764 2.81854 42.843 3.85714 42.843H32.1429C33.1077 42.843 34 41.9546 34 40.9654V19.1921C34 18.5529 33.8081 17.7571 33.4661 16.9821C33.1238 16.2065 32.6707 15.5412 32.2264 15.131L32.2171 15.1224L19.4603 3.04152C18.7005 2.34444 17.391 2.34521 16.6324 3.04383Z" fill="#0078BF"/>
</svg>
