<svg width="38" height="39" viewBox="0 0 38 39" fill="none" xmlns="http://www.w3.org/2000/svg">
<path fill-rule="evenodd" clip-rule="evenodd" d="M20.912 10.4497L23.6773 11.3409C24.2607 11.4896 24.6294 12.106 24.4131 12.7162L24.0474 13.9549L24.3482 14.2579L25.5015 13.6606C25.7957 13.5124 26.1042 13.534 26.3307 13.61C26.5562 13.6857 26.8121 13.8528 26.9582 14.1431L28.311 16.7923C28.4563 17.0849 28.4351 17.3911 28.3605 17.6164C28.2869 17.8388 28.1239 18.0951 27.8367 18.2437L26.7117 18.8436L26.7555 19.3733L27.9549 19.7651C28.5402 19.9153 28.9086 20.5365 28.6856 21.149L27.8003 23.9352C27.6539 24.5164 27.0364 24.9015 26.4132 24.67L25.194 24.2718L24.8917 24.6371L25.4604 25.7826C25.6057 26.0752 25.5846 26.3814 25.51 26.6067C25.436 26.8304 25.2714 27.0884 24.9809 27.2367L22.3505 28.5991C22.0563 28.7473 21.7478 28.7257 21.5213 28.6497C21.2945 28.5735 21.0369 28.405 20.8913 28.1116L20.3354 26.9919L19.8223 27.0389L19.4349 28.2093C19.2861 28.7868 18.6715 29.1685 18.051 28.9391L15.2856 28.0479C14.6987 27.8984 14.3292 27.2755 14.5537 26.6618L14.947 25.4405L14.5873 25.1235L13.4614 25.6905M13.4614 25.6905C13.1672 25.8386 12.8587 25.8171 12.6322 25.7411C12.4067 25.6654 12.1508 25.4983 12.0047 25.208L10.6519 22.5588C10.5066 22.2662 10.5278 21.96 10.6024 21.7347C10.6769 21.5096 10.8429 21.25 11.1365 21.1022L12.2491 20.5419L12.2026 20.0503L11.0417 19.6606C10.4587 19.5086 10.0923 18.8888 10.3149 18.2776L11.2001 15.4914C11.3468 14.9091 11.9665 14.5236 12.5908 14.758L13.7552 15.1489L14.1039 14.7509L13.5104 13.6218L13.5025 13.6063C13.3572 13.3136 13.3783 13.0075 13.4529 12.7822C13.5269 12.5584 13.6915 12.3004 13.982 12.1522L16.6124 10.7897C16.9066 10.6416 17.2151 10.6631 17.4416 10.7392C17.6671 10.8149 17.923 10.982 18.0691 11.2722L18.6625 12.4342L19.139 12.3885L19.5271 11.1833C19.6741 10.6037 20.2901 10.2198 20.912 10.4497M24.8228 24.4982C24.8227 24.498 24.8229 24.4984 24.8228 24.4982V24.4982ZM24.2279 23.4097C24.2263 23.3868 24.2262 23.3692 24.2262 23.3585C24.2262 23.3757 24.2268 23.3928 24.2279 23.4097ZM25.2764 19.6876L25.2064 18.8424C25.1335 18.3477 25.3963 17.8068 25.8872 17.5833L26.7859 17.1041L25.8089 15.1906L24.8634 15.6803L24.564 15.831C24.2747 15.9767 23.924 15.9205 23.6952 15.6914C23.695 15.6912 23.6954 15.6916 23.6952 15.6914C23.6951 15.6912 23.6943 15.6904 23.6941 15.6902C23.6941 15.6902 23.6942 15.6903 23.6941 15.6902L23.6863 15.6827C23.6781 15.6748 23.6647 15.6621 23.6473 15.6464C23.6118 15.6141 23.5637 15.5728 23.5115 15.5333C23.4831 15.5119 23.4563 15.4885 23.4313 15.4633L22.9337 14.9622C22.5766 14.6573 22.4027 14.1278 22.5764 13.6402L22.8669 12.6558L20.8392 12.0022L20.5142 13.0116C20.5091 13.0275 20.5034 13.0431 20.4973 13.0586C20.341 13.4521 19.9367 13.8498 19.3951 13.8708L18.6619 13.9412C18.1581 14.0192 17.6145 13.7458 17.3952 13.2507L16.9198 12.3198L15.034 13.2965L15.5133 14.2082L15.5212 14.2236C15.6485 14.48 15.6513 14.7501 15.6254 14.9411C15.5984 15.1404 15.5245 15.3721 15.3759 15.5717C15.3641 15.5876 15.3516 15.603 15.3385 15.618L14.7902 16.2438C14.4884 16.6218 13.9383 16.8129 13.4322 16.6227L12.5127 16.314L11.8643 18.3545L12.8377 18.6812C12.8517 18.6859 12.8655 18.691 12.8792 18.6966C13.2752 18.8561 13.6653 19.264 13.6857 19.8013L13.7556 20.5409C13.8319 21.0405 13.5649 21.5886 13.0657 21.8101L12.1813 22.2555L13.1562 24.1647L14.062 23.7086C14.3195 23.5789 14.591 23.576 14.7827 23.6024C14.9828 23.6299 15.2148 23.7051 15.414 23.8555C15.429 23.8669 15.4436 23.8788 15.4578 23.8913L16.0424 24.4065C16.4185 24.7099 16.6043 25.2579 16.4202 25.7595L16.1056 26.7362L18.1268 27.3876L18.4506 26.4092C18.4552 26.3954 18.4602 26.3816 18.4656 26.3681C18.6221 25.9741 19.0273 25.5758 19.5698 25.5557L20.3406 25.4852C20.8455 25.408 21.3898 25.6833 21.6074 26.1808L22.0473 27.0669L23.9374 26.0879L23.4793 25.1652C23.352 24.9088 23.3492 24.6387 23.375 24.4478C23.402 24.2485 23.4759 24.0167 23.6245 23.8172C23.6322 23.8069 23.6401 23.7969 23.6482 23.787L24.1981 23.1225C24.21 23.1063 24.224 23.0871 24.2387 23.0671C24.2721 23.0215 24.3087 22.9715 24.331 22.9426C24.3315 22.9419 24.3322 22.9411 24.333 22.9401C24.3468 22.922 24.4004 22.8521 24.4695 22.7917C24.4915 22.7725 24.5381 22.7337 24.6041 22.6969C24.6528 22.6699 24.8178 22.5826 25.0455 22.6048C25.1793 22.6178 25.2942 22.6632 25.389 22.7267L25.563 22.8143L26.4867 23.116L27.1351 21.0753L26.1311 20.7473C26.1151 20.7421 26.0993 20.7364 26.0837 20.7301C26.0638 20.722 26.0453 20.715 26.0287 20.7088C26.0279 20.7088 26.0271 20.7089 26.0264 20.7089C25.6122 20.7089 25.2764 20.3731 25.2764 19.9589V19.6876ZM24.1169 26.4496C24.117 26.4498 24.1168 26.4494 24.1169 26.4496V26.4496ZM11.8119 22.4415C11.8122 22.4413 11.8116 22.4416 11.8119 22.4415V22.4415ZM27.1518 16.9092L27.1409 16.9149C27.1445 16.913 27.1481 16.9111 27.1518 16.9092Z" fill="#F28E00"/>
<path fill-rule="evenodd" clip-rule="evenodd" d="M17.9538 18.2736C17.1717 19.1508 17.2095 20.4916 18.0594 21.2972C18.9266 22.0815 20.249 22.0443 21.0466 21.1909C21.8301 20.3121 21.7907 18.9678 20.9362 18.1628C20.0836 17.3595 18.7638 17.4066 17.9538 18.2736ZM16.8503 17.2576C18.2161 15.7872 20.4936 15.6848 21.9648 17.071C23.4342 18.4553 23.4712 20.7339 22.1589 22.1972L22.1501 22.207L22.1501 22.2069C20.7732 23.6892 18.5018 23.7274 17.0451 22.4024L17.0354 22.3936L17.0355 22.3935C15.5662 21.0091 15.5291 18.7306 16.8414 17.2672L16.8502 17.2575L16.8503 17.2576Z" fill="#F28E00"/>
<path fill-rule="evenodd" clip-rule="evenodd" d="M35.9252 19.1155C35.9252 18.5632 36.3729 18.1155 36.9252 18.1155H37.0002C37.5525 18.1155 38.0002 18.5632 38.0002 19.1155C38.0002 24.2816 36.0259 29.1472 32.3809 32.7405C28.8168 36.328 23.9872 38.3195 18.9252 38.3195C13.8613 38.3195 9.03013 36.3266 5.46557 32.7366L3.6502 30.9083V33.3916C3.6502 33.9439 3.20248 34.3916 2.6502 34.3916H2.5752C2.02291 34.3916 1.5752 33.9439 1.5752 33.3916V28.2552C1.5752 27.703 2.02291 27.2552 2.5752 27.2552H7.67519C8.22747 27.2552 8.67519 27.703 8.67519 28.2552V28.3308C8.67519 28.8831 8.22747 29.3308 7.67519 29.3308H5.20232L7.03481 31.1763C10.2234 34.3877 14.4685 36.1684 19.0002 36.1684C23.5319 36.1684 27.777 34.3877 30.9656 31.1763C34.1544 27.9648 35.9252 23.686 35.9252 19.1155Z" fill="#F28E00"/>
<path fill-rule="evenodd" clip-rule="evenodd" d="M5.54038 5.64537C9.10495 2.05538 13.9362 0.0625 19 0.0625C24.062 0.0625 28.8916 2.05396 32.4558 5.64154C32.4571 5.64282 32.4583 5.64409 32.4596 5.64537L34.35 7.5095V4.99033C34.35 4.43804 34.7977 3.99033 35.35 3.99033H35.425C35.9773 3.99033 36.425 4.43804 36.425 4.99033V10.1267C36.425 10.679 35.9773 11.1267 35.425 11.1267H30.325C29.7727 11.1267 29.325 10.679 29.325 10.1267V10.0512C29.325 9.4989 29.7727 9.05118 30.325 9.05118H32.7979L30.9654 7.20562C27.7768 3.99429 23.5317 2.21357 19 2.21357C14.4586 2.21357 10.2211 3.92521 7.04232 7.19778L7.03466 7.20566C3.84586 10.4172 2.075 14.6959 2.075 19.2665C2.075 19.8188 1.62729 20.2665 1.075 20.2665H1C0.447715 20.2665 0 19.8188 0 19.2665V19.1909C0 14.0974 1.9761 9.23509 5.54038 5.64537Z" fill="#F28E00"/>
</svg>
