<svg width="164" height="50" viewBox="0 0 164 50" fill="none" xmlns="http://www.w3.org/2000/svg">
<g clip-path="url(#clip0)">
<path fill-rule="evenodd" clip-rule="evenodd" d="M164 21.5994V18.225H155.526C155.526 18.225 155.451 18.225 155.451 18.3V21.5994H155.601C155.601 20.0247 156.501 18.3749 158.451 18.3749H158.601C158.676 18.3749 158.676 18.3749 158.676 18.4499V27.7485C158.676 27.8235 158.676 27.8235 158.601 27.8235H157.401V27.9735H161.825V27.8235H160.626C160.551 27.8235 160.551 27.8235 160.551 27.7485V18.4499C160.551 18.3749 160.551 18.3749 160.626 18.3749H160.775C162.8 18.3749 163.7 19.9497 163.7 21.5994C163.775 21.6744 164 21.6744 164 21.5994ZM155.376 24.9739C155.376 23.3242 154.251 22.6493 152.527 22.0494C150.802 21.4495 150.052 20.8496 150.052 19.9497C150.052 19.0498 150.727 18.3 151.852 18.3C153.052 18.3 154.176 19.4998 154.176 20.7746H154.326V18.15C154.326 18.075 154.176 18.075 154.176 18.15C154.176 18.3 154.027 18.5249 153.652 18.5249C152.977 18.5249 152.602 18.15 151.852 18.15C150.502 18.15 149.227 19.4248 149.227 21.2245C149.227 22.8743 150.277 23.5492 151.477 24.0741C153.577 24.824 154.326 25.1989 154.326 26.4737C154.326 27.3736 153.652 28.2734 152.077 28.2734C150.277 28.2734 149.077 26.1738 149.077 25.0489C149.077 24.9739 148.927 24.9739 148.927 25.0489V28.4234C148.927 28.4984 149.077 28.4984 149.077 28.4234C149.077 28.1235 149.452 27.8985 149.827 27.8985C150.352 27.8985 151.177 28.4234 152.152 28.4234C154.176 28.2734 155.376 26.4737 155.376 24.9739ZM148.177 27.9735V24.824H148.027C148.027 26.2487 147.053 27.8985 144.803 27.8985H143.453C143.378 27.8985 143.378 27.8985 143.378 27.8235V23.0992H143.753C144.878 23.0992 145.553 23.9991 145.553 24.9739H145.703V21.0745H145.478C145.478 22.0494 144.803 22.9492 143.678 22.9492H143.303V18.4499C143.303 18.3749 143.303 18.3749 143.378 18.3749H144.653C146.378 18.3749 147.203 19.8747 147.203 21.2245H147.353V18.3C147.353 18.3 147.353 18.225 147.278 18.225H140.079V18.3749H141.278C141.353 18.3749 141.353 18.3749 141.353 18.4499V27.7485C141.353 27.8235 141.353 27.8235 141.278 27.8235H140.079V27.9735H148.177ZM140.529 24.374V24.224H136.104V24.374H137.304C137.379 24.374 137.379 24.374 137.379 24.449V26.9236C137.379 27.6735 136.929 28.1235 135.729 28.1235C135.129 28.1235 134.604 27.9735 134.305 27.5985C133.705 26.9236 133.63 25.7238 133.63 23.1742C133.63 20.7746 133.855 19.4248 134.529 18.7499C134.979 18.3749 135.429 18.225 135.954 18.225C137.304 18.225 138.504 20.0247 138.504 21.3745H138.654V18.15H138.504C138.504 18.3 138.204 18.5249 137.829 18.5249C137.379 18.5249 136.629 18.15 135.954 18.15C133.405 18.15 131.53 20.5496 131.53 23.2492C131.53 25.8738 133.18 28.3484 135.804 28.3484C137.304 28.3484 137.979 27.6735 138.654 27.6735C139.029 27.6735 139.179 27.8985 139.254 28.1235C139.254 28.1984 139.479 28.1984 139.479 28.1235V24.374C139.479 24.374 139.479 24.299 139.554 24.299L140.529 24.374ZM130.93 27.9735V27.8235H129.73C129.655 27.8235 129.655 27.8235 129.655 27.7485V18.5249C129.655 18.4499 129.655 18.4499 129.73 18.4499H130.93V18.3H126.506V18.4499H127.706C127.781 18.4499 127.781 18.4499 127.781 18.5249V27.8235C127.781 27.8985 127.781 27.8985 127.706 27.8985H126.506V28.0485L130.93 27.9735ZM124.181 23.0992C124.181 25.7238 123.956 26.6987 123.281 27.2986C122.906 27.7485 122.456 27.7485 121.856 27.7485H120.732C120.657 27.7485 120.657 27.7485 120.657 27.6735V18.3749C120.657 18.3 120.657 18.3 120.732 18.3H121.856C122.456 18.3 122.981 18.4499 123.281 18.7499C123.956 19.5748 124.181 20.8496 124.181 23.0992ZM126.281 23.0992C126.281 20.3996 124.256 18.225 121.856 18.225H117.432V18.3749H118.632C118.707 18.3749 118.707 18.3749 118.707 18.4499V27.7485C118.707 27.8235 118.707 27.8235 118.632 27.8235H117.432V27.9735H121.856C124.256 27.9735 126.281 25.7988 126.281 23.0992ZM113.683 27.9735V24.674H113.533C113.533 26.0238 112.558 27.8235 110.533 27.8235H109.333C109.258 27.8235 109.258 27.8235 109.258 27.7485V18.5249C109.258 18.4499 109.258 18.4499 109.333 18.4499H110.533V18.3H106.109V18.4499H107.309C107.384 18.4499 107.384 18.4499 107.384 18.5249V27.8235C107.384 27.8985 107.384 27.8985 107.309 27.8985H106.109V28.0485L113.683 27.9735C113.608 27.9735 113.683 27.9735 113.683 27.9735ZM86.9867 18.4499V18.3H84.2122V18.4499H85.412C85.487 18.4499 85.487 18.4499 85.487 18.5249V25.1989C85.487 26.9236 84.6621 28.0485 82.7124 28.0485C81.2126 28.0485 80.6877 26.9986 80.6877 25.3489V18.5249C80.6877 18.4499 80.6877 18.4499 80.7627 18.4499H81.9625V18.3H77.5382V18.4499H78.738C78.813 18.4499 78.813 18.4499 78.813 18.5249V25.3489C78.813 27.3736 80.2378 28.2734 82.3374 28.2734C84.5871 28.2734 85.6369 27.0736 85.6369 25.1989V18.5249C85.6369 18.4499 85.6369 18.4499 85.7119 18.4499H86.9867ZM77.0882 21.5994V18.225H68.6145C68.6145 18.225 68.5396 18.225 68.5396 18.3V21.5994H68.6895C68.6895 20.0247 69.5894 18.3749 71.5391 18.3749H71.6891C71.7641 18.3749 71.7641 18.3749 71.7641 18.4499V27.7485C71.7641 27.8235 71.7641 27.8235 71.6891 27.8235H70.4893V27.9735H74.9136V27.8235H73.7138C73.6388 27.8235 73.6388 27.8235 73.6388 27.7485V18.4499C73.6388 18.3749 73.6388 18.3749 73.7138 18.3749H73.8637C75.8884 18.3749 76.7883 19.9497 76.7883 21.5994C76.8633 21.6744 77.0882 21.6744 77.0882 21.5994ZM67.9396 28.1984V24.524H67.7897C67.7897 26.3237 66.4399 28.1235 64.7901 28.1235C64.1902 28.1235 63.5903 27.9735 63.2904 27.5985C62.6904 26.9236 62.3905 25.5738 62.3905 23.1742C62.3905 20.7746 62.6904 19.4248 63.2904 18.7499C63.7403 18.3749 64.1152 18.225 64.7151 18.225C66.0649 18.225 67.5647 20.0247 67.5647 21.3745H67.7147V18.15H67.5647C67.5647 18.3 67.2647 18.5249 66.8898 18.5249C66.2899 18.5249 65.39 18.15 64.7901 18.15C62.1655 18.15 60.3658 20.5496 60.3658 23.2492C60.3658 26.0238 62.3155 28.3484 64.8651 28.3484C65.615 28.3484 66.6648 27.8985 67.2647 27.8985C67.7147 27.8985 67.8647 28.1984 67.8647 28.3484C67.7897 28.1984 67.9396 28.1984 67.9396 28.1984ZM59.6909 27.9735V24.824H59.5409C59.5409 26.2487 58.5661 27.8985 56.3164 27.8985H54.9666C54.8916 27.8985 54.8916 27.8985 54.8916 27.8235V23.0992H55.2666C56.3164 23.0992 56.9913 23.9991 56.9913 24.9739H57.1413V21.0745H56.9913C56.9913 22.0494 56.3164 22.9492 55.1916 22.9492H54.8166V18.4499C54.8166 18.3749 54.8166 18.3749 54.8916 18.3749H56.2414C57.9662 18.3749 58.791 19.8747 58.791 21.2245H58.941V18.3C58.941 18.3 58.941 18.225 58.866 18.225H51.6671V18.3749H52.8669C52.9419 18.3749 52.9419 18.3749 52.9419 18.4499V27.7485C52.9419 27.8235 52.9419 27.8235 52.8669 27.8235H51.6671V27.9735H59.6909C59.6159 27.9735 59.6909 27.9735 59.6909 27.9735ZM50.9922 21.5994V18.225H42.5185C42.5185 18.225 42.4435 18.225 42.4435 18.3V21.5994H42.5935C42.5935 20.0247 43.4934 18.3749 45.4431 18.3749H45.593C45.668 18.3749 45.668 18.3749 45.668 18.4499V27.7485C45.668 27.8235 45.668 27.8235 45.593 27.8235H44.3932V27.9735H48.8176V27.8235H47.6177C47.5428 27.8235 47.5428 27.8235 47.5428 27.7485V18.4499C47.5428 18.3749 47.5428 18.3749 47.6177 18.3749H47.7677C49.7924 18.3749 50.6923 19.9497 50.6923 21.5994C50.8422 21.6744 50.9922 21.6744 50.9922 21.5994ZM41.9186 27.9735V27.8235H40.7188C40.6438 27.8235 40.6438 27.8235 40.6438 27.7485V18.5249C40.6438 18.4499 40.6438 18.4499 40.7188 18.4499H41.9186V18.3H37.4943V18.4499H38.6941C38.7691 18.4499 38.7691 18.4499 38.7691 18.5249V27.8235C38.7691 27.8985 38.7691 27.8985 38.6941 27.8985H37.4943V28.0485L41.9186 27.9735ZM36.6694 27.9735V27.8235H35.4696C35.3946 27.8235 35.3946 27.8235 35.3946 27.7485V18.5249C35.3946 18.4499 35.3946 18.4499 35.4696 18.4499H36.6694V18.3H32.3201V18.4499H33.4449C33.5199 18.4499 33.5199 18.4499 33.5199 18.5249V22.9492H30.3704V18.5249C30.3704 18.4499 30.3704 18.4499 30.4454 18.4499H31.4952V18.3H27.1459V18.4499H28.3457C28.4207 18.4499 28.4207 18.4499 28.4207 18.5249V27.8235C28.4207 27.8985 28.4207 27.8985 28.3457 27.8985H27.1459V28.0485H31.4952V27.8985H30.3704C30.2954 27.8985 30.2954 27.8985 30.2954 27.8235V23.0242H33.4449V27.7485C33.4449 27.8235 33.4449 27.8235 33.3699 27.8235H32.2451V27.9735H36.6694ZM26.171 28.1984V24.524H26.021C26.021 26.3237 24.6712 28.1235 23.0215 28.1235C22.4216 28.1235 21.8217 27.9735 21.5217 27.5985C20.9218 26.9236 20.6219 25.5738 20.6219 23.1742C20.6219 20.7746 20.9218 19.4248 21.5217 18.7499C21.8967 18.3749 22.3466 18.225 22.9465 18.225C24.2963 18.225 25.7961 20.0247 25.7961 21.3745H25.946V18.15H25.7961C25.7961 18.3 25.4961 18.5249 25.1212 18.5249C24.5213 18.5249 23.6214 18.15 23.0215 18.15C20.3969 18.15 18.5972 20.5496 18.5972 23.2492C18.5972 26.0238 20.5469 28.3484 23.0965 28.3484C23.8464 28.3484 24.8962 27.8985 25.4961 27.8985C25.8711 27.8985 26.096 28.1984 26.096 28.3484C26.021 28.1984 26.171 28.1984 26.171 28.1984ZM15.0727 20.6996C15.0727 22.4243 14.7727 22.7993 13.4979 22.7993H12.6731V18.4499C12.6731 18.3749 12.6731 18.3749 12.7481 18.3749H13.348C14.6978 18.4499 15.0727 19.0498 15.0727 20.6996ZM19.1221 27.8235L19.0471 27.6735C18.8221 27.8985 18.6722 28.0485 18.2972 28.0485C17.8473 28.0485 17.4723 27.5985 17.4723 26.8486V25.6488C17.4723 24.299 16.5725 22.9492 14.3978 22.9492C15.9726 22.9492 17.0974 21.8994 17.0974 20.6996C17.0974 19.3498 15.8976 18.3 13.7979 18.3H9.52355V18.4499H10.7234C10.7984 18.4499 10.7984 18.4499 10.7984 18.5249V27.7485C10.7984 27.8235 10.7984 27.8235 10.7234 27.8235H9.52355V27.9735H13.9479V27.8235H12.7481C12.6731 27.8235 12.6731 27.8235 12.6731 27.7485V23.0242H13.4979C14.6978 23.0242 15.5226 23.4742 15.5226 24.674V25.4989C15.5226 27.5235 16.7974 28.1984 17.9223 28.1984C18.4472 28.2734 18.8971 28.0485 19.1221 27.8235ZM5.2492 24.599H2.47462L3.89941 20.5496L5.2492 24.599ZM9.74851 27.9735V27.8235H8.5487C8.47371 27.8235 8.47371 27.8235 8.39872 27.7485L4.79927 18C4.79927 17.925 4.64929 17.925 4.64929 18L1.34979 27.2236C1.12483 27.7485 1.12483 27.7485 0.974851 27.7485H0V27.8985H2.6246C2.69959 27.8985 2.69959 27.7485 2.6246 27.7485H1.42478C1.34979 27.7485 1.34979 27.6735 1.57476 27.2236L2.47462 24.674H5.39918L6.44902 27.7485C6.44902 27.7485 6.44902 27.8235 6.37403 27.8235H5.17421C5.09922 27.8235 5.09922 27.9735 5.17421 27.9735H9.74851ZM91.3361 22.8743H90.5112V18.4499C90.5112 18.3749 90.5112 18.3749 90.5862 18.3749H91.1861C92.4609 18.3749 92.9108 18.8999 92.9108 20.6246C92.9858 22.4243 92.6859 22.8743 91.3361 22.8743ZM96.1353 27.8985C95.6854 27.8985 95.3105 27.4486 95.3105 26.6987V25.6488C95.3105 24.299 94.4106 22.9492 92.2359 22.9492C93.8107 22.9492 94.9355 21.8994 94.9355 20.6996C94.9355 19.3498 93.7357 18.3 91.636 18.3H87.3617V18.4499H88.5615C88.6365 18.4499 88.6365 18.4499 88.6365 18.5249V27.8235C88.6365 27.8985 88.6365 27.8985 88.5615 27.8985H87.3617V28.0485H91.786V27.8985H90.5862C90.5112 27.8985 90.5112 27.8985 90.5112 27.8235V23.0242H91.3361C92.5359 23.0242 93.3608 23.4742 93.3608 24.674V25.5738C93.3608 27.5985 94.6356 28.0485 95.7604 28.0485H96.1353V27.8985ZM101.31 24.599H98.46L99.8848 20.5496L101.31 24.599ZM105.734 27.9735V27.8235H104.534C104.459 27.8235 104.459 27.8235 104.384 27.7485L100.71 18C100.71 17.925 100.56 17.925 100.56 18L97.2602 27.2236C97.0352 27.7485 97.0352 27.7485 96.8852 27.7485H96.1353V27.8985H98.46C98.535 27.8985 98.535 27.7485 98.46 27.7485H97.4851C97.4101 27.7485 97.4101 27.6735 97.6351 27.2236L98.535 24.674H101.46L102.509 27.7485C102.509 27.7485 102.509 27.8235 102.434 27.8235H101.235C101.16 27.8235 101.16 27.9735 101.235 27.9735H105.734Z" fill="black"/>
</g>
<defs>
<clipPath id="clip0">
<rect width="164" height="10.4234" fill="white" transform="translate(0 18)"/>
</clipPath>
</defs>
</svg>
