<svg width="135" height="50" viewBox="0 0 135 50" fill="none" xmlns="http://www.w3.org/2000/svg">
<g clip-path="url(#clip0)">
<path d="M118.8 15.6C118.8 14.3 119.2 13.8 119.9 13.8C120.6 13.8 121.1 14.1 121.8 15.6L125.7 24.6V30.3C125.7 31.6 125.2 32 123.6 32.2V32.6H130.8V32.1C129.2 31.9 128.7 31.5 128.7 30.2V24.5L132.5 15.8C133.2 14.1 134 13.8 135.1 13.6V13.2H129.8V13.6C131.6 13.8 132.2 14.3 131.7 15.5L128.4 23.2L125 15.3C124.5 14.2 124.8 13.9 126.8 13.6V13.2H115.5V13.6C117.3 13.9 117.8 14.2 117.8 15.5V26.1L109.5 13.3H105.4V13.7C106.7 13.9 107.1 14.3 107.1 15.6V30.3C107.1 31.6 106.7 32.1 106.3 32.1C105.9 32.1 105.7 31.9 105.1 30.3L99 13.3H98.6L92.7 29.5C92.1 31.3 91.1 31.9 90 32.2V32.6H95.4V32.2C93.6 32 93 31.2 93.4 30L94.7 26.3H100.3L101.6 29.8C102.1 31.4 101.8 31.8 100.2 32.1V32.5H110.5V32.1C108.7 31.8 108.2 31.5 108.2 30.2V17.1L118.2 32.5H118.8V15.6ZM46.5 22.9C46.5 16.9 49.3 13.8 52.5 13.8C54.4 13.8 55.7 14.2 56.4 15C56.9 15.6 57.4 16.3 57.8 17.6H58.2V13.6C56.3 13.2 54.6 13 52.9 13C48 13 42.9 16.2 42.9 22.9C42.9 29.6 48 32.8 52.6 32.8C54.6 32.8 56.4 32.5 58.1 32L58.6 28.2L58.3 28C57.9 28.8 57.4 29.5 56.8 30.1C55.7 31.3 54.1 32 52.5 32C49.4 31.9 46.5 28.9 46.5 22.9ZM87.1 23.4C86.7 23.4 86.1 23.4 85.6 23.3V14H87.1C89.6 14 90.7 15.3 90.7 18.7C90.7 22.1 89.6 23.4 87.1 23.4ZM28.3 13.3V17.9H28.7C29.2 15 30.4 14 32.3 14H33.2V30.2C33.2 31.5 32.7 31.9 31.1 32.1V32.5H38.3V32.1C36.7 31.9 36.2 31.5 36.2 30.2V14H37.1C39 14 40.2 14.9 40.7 17.9H41.1V13.3H28.3ZM22.6 32.7C25.7 32.7 29 30.9 29 27.2C29 25 27.9 23.2 25.8 22.1L22.2 20.1C20.3 19 19.8 18.1 19.8 16.7C19.8 15.1 20.9 13.9 23.1 13.9C24.2 13.9 24.9 14.2 25.6 14.8C26.1 15.4 26.7 16.3 27.2 18H27.5V13.8C26.2 13.4 24.9 13.2 23.3 13.2C20.2 13.2 17.9 15.2 17.9 18.5C17.9 20.6 19 22.5 20.9 23.6L24.2 25.5C26.1 26.6 26.7 27.6 26.7 29.1C26.7 30.9 24.9 32.2 22.9 32.2C21.6 32.2 20.5 31.7 19.7 30.9C19.2 30.4 18.6 29.6 18.3 28.6H20.5V28C19.9 27.9 19.5 27.8 19 26.6L14.8 16.4H14.4L10.3 26.4C9.7 27.7 9.4 27.9 8.7 28V28.4H12.4V28C11.1 27.9 10.7 27.2 11 26.4L11.6 24.8H15.3L16.1 26.8C16.6 27.7 16 27.9 14.7 28V28.4H17.6V32C19.1 32.4 21 32.7 22.6 32.7ZM69.1 32.5L74.5 17.1L74.9 30.2C74.9 31.5 74.4 31.9 72.9 32.1V32.5H87.9V32.1C86.1 31.8 85.6 31.5 85.6 30.2V24C86.2 24.1 86.8 24.1 87.2 24.1C90.8 24.1 93.9 22.8 93.9 18.7C93.9 14.6 90.8 13.3 87.2 13.3H80.7V13.7C82 13.9 82.4 14.3 82.4 15.6V30.2C82.4 31.5 81.9 32.1 80.3 32.1C78.7 32.1 78 31.5 78 30.2L77.5 15.5C77.5 14.2 77.9 13.7 79.3 13.5V13.1H74.9L70.1 27.1L65.2 13.3H60.4V13.7C61.8 13.9 62.3 14.4 62.2 15.7L61.7 29.7C61.7 31.1 60.9 31.9 59.6 32.2V32.6H64.6V32.1C63.3 31.9 62.6 31.1 62.6 29.6L63 16.8L68.5 32.4L69.1 32.5ZM54.5 28.5C56.9 28.5 60 26.3 60 22.9C60 19.5 56.9 17.3 54.5 17.3C52.1 17.3 49 19.5 49 22.9C48.9 26.3 52 28.5 54.5 28.5ZM54.5 18C56.1 18 57.1 19.3 57.1 22.8C57.1 26.4 56 27.6 54.5 27.6C52.9 27.6 51.9 26.3 51.9 22.8C51.8 19.3 52.9 18 54.5 18ZM100.1 25.5H95L97.5 18.4L100.1 25.5ZM15.1 24.1H12L13.6 20.2L15.1 24.1ZM9.2 25H9.6V19.2H9.2C8.6 21.3 8 21.8 6.9 21.8H4.8V14H8.1C10 14 11.2 14.9 11.7 17.9H12.1V13.3H0V13.7C1.3 13.9 1.7 14.3 1.7 15.6V30.2C1.7 31.5 1.3 31.9 0 32.1V32.5H7.1V32.1C5.4 31.8 4.8 31.5 4.8 30.2V22.5H6.9C8 22.5 8.6 23 9.2 25Z" fill="black"/>
</g>
<defs>
<clipPath id="clip0">
<rect width="135" height="50" fill="white"/>
</clipPath>
</defs>
</svg>
