<svg width="124" height="50" viewBox="0 0 124 50" fill="none" xmlns="http://www.w3.org/2000/svg">
<path d="M19.12 19.0386C18.4795 19.0386 17.9101 19.2164 17.4475 19.5185C16.9138 17.6345 15.2768 16.5858 12.7859 16.5858H8.87153V17.9544H12.8926C14.9566 17.9544 16.1665 19.0742 16.1665 21.0116C16.1665 22.949 14.9566 24.0688 12.8926 24.0688H12.8571L13.0884 23.7311C13.5865 22.9845 14.0492 22.2558 14.0492 21.5626C14.0492 20.1406 13.1417 19.0564 11.3625 19.0564C9.83233 19.0564 8.65802 20.2295 8.65802 21.6159H10.117C10.117 20.9227 10.5796 20.4073 11.3447 20.4073C12.1809 20.4073 12.5724 20.8872 12.5724 21.5981C12.5724 22.1314 12.2165 22.6824 11.8429 23.2334L11.2557 24.0865H8.87153V25.4552H10.3483L7.78619 29.1878H13.9424V27.8192H10.2949L11.9318 25.4374H12.7859C12.9282 25.4374 13.0706 25.4374 13.2129 25.4196L17.5187 31.0185H19.3691L17.9457 29.1878L20.6502 25.2419C21.3441 24.2643 22.1625 23.2156 22.1625 21.9892C22.127 20.3717 20.8993 19.0386 19.12 19.0386ZM17.0383 28.0147L14.8142 25.153C15.6327 24.8864 16.291 24.4598 16.7714 23.8733C17.3052 24.5487 18.1414 24.9753 19.1378 24.9753H19.209L17.0383 28.0147ZM19.12 23.6066C18.1948 23.6066 17.5899 22.8957 17.5899 22.007C17.5899 21.9359 17.5899 21.8648 17.6077 21.7937V21.7581C17.7144 20.9938 18.2838 20.4073 19.12 20.4073C20.0452 20.4073 20.6502 21.1182 20.6502 22.007C20.668 22.8957 20.063 23.6066 19.12 23.6066Z" fill="black"/>
<path d="M14.5118 12C8.15983 12 3 17.1546 3 23.5C3 29.8454 8.15983 35 14.5118 35C20.8637 35 26.0235 29.8454 26.0235 23.4822C26.0235 17.1546 20.8637 12 14.5118 12ZM14.5118 33.6314C8.90712 33.6314 4.37002 29.0811 4.37002 23.5C4.37002 17.9189 8.92491 13.3686 14.5118 13.3686C20.0986 13.3686 24.6535 17.9189 24.6535 23.5C24.6535 29.0989 20.1164 33.6314 14.5118 33.6314ZM39.7771 23.4289C40.3287 22.9134 40.6846 22.1669 40.6846 21.3493C40.6846 20.5317 40.3287 19.7852 39.7771 19.2697C39.2789 18.7898 38.6028 18.5054 37.5531 18.5054H33.8344V28.7079H35.8094V24.1932H36.5211L40.1686 28.7079H42.5884L38.763 24.0155C39.1366 23.9088 39.4925 23.6955 39.7771 23.4289ZM38.4249 22.1314C38.247 22.3091 37.9979 22.4335 37.4285 22.4335H35.7916V20.2473H37.4285C37.9979 20.2473 38.247 20.3895 38.4249 20.5672C38.8163 21.0294 38.8163 21.687 38.4249 22.1314ZM45.8978 24.1043H49.0293V22.3624H45.8978V20.2473H50.0434V18.5054H43.9228V28.7079H50.1858V26.966H45.8978V24.1043ZM52.7657 28.6901H54.7407V24.1043H57.8721V22.3624H54.7407V20.2473H58.8863V18.5054H52.7657V28.6901ZM60.9502 18.5054H62.9252V28.7079H60.9502V18.5054ZM72.8179 25.153L67.1242 18.5054H65.7364V28.7079H67.7114V22.0603L73.405 28.7079H74.7928V18.5054H72.8179V25.153ZM79.7569 24.1043H82.8884V22.3624H79.7569V20.2473H83.9026V18.5054H77.782V28.7079H84.0449V26.966H79.7569V24.1043ZM92.5676 23.4289C93.1191 22.9134 93.475 22.1669 93.475 21.3493C93.475 20.5317 93.1191 19.7852 92.5676 19.2697C92.0694 18.7898 91.3932 18.5054 90.3435 18.5054H86.6248V28.7079H88.5998V24.1932H89.3115L92.9234 28.7079H95.361L91.5356 24.0332C91.927 23.891 92.2651 23.6955 92.5676 23.4289ZM91.1975 22.1314C91.0196 22.3091 90.7705 22.4335 90.2011 22.4335H88.582V20.2473H90.2189C90.7883 20.2473 91.0374 20.3895 91.2153 20.5672C91.3932 20.7805 91.5 21.0649 91.5 21.3493C91.5 21.6515 91.3932 21.9181 91.1975 22.1314ZM99.4533 22.0781L97.1936 18.4876H94.9518L98.4569 24.0866V28.6901H100.432V24.0866L103.919 18.5054H101.677L99.4533 22.0781ZM110.68 24.3354C111.392 23.4111 111.783 22.6113 111.783 21.3493C111.783 19.483 110.2 18.1321 108.456 18.1321H108.385C106.641 18.1321 105.165 19.4297 105.058 21.3138H107.033C107.051 20.5495 107.673 19.9451 108.438 19.9096C109.204 19.9274 109.826 20.5495 109.844 21.3138C109.844 21.847 109.773 22.4158 109.043 23.34L104.666 28.6723H112.193V26.8949H108.581L110.68 24.3354ZM117.264 18.1499C115.253 18.1677 113.634 19.8029 113.652 21.7937C113.616 23.7488 115.182 25.3485 117.139 25.3841C117.175 25.3841 117.192 25.3841 117.228 25.3841H117.37L115.431 28.7079H117.584L119.986 24.5842C120.52 23.66 121 22.7535 121 21.7226C121 19.5363 119.167 18.1499 117.264 18.1499ZM117.317 23.6244C116.303 23.6244 115.484 22.8068 115.484 21.7937C115.484 20.7805 116.303 19.9629 117.317 19.9629C118.331 19.9629 119.15 20.7805 119.15 21.7937C119.15 22.8068 118.313 23.6244 117.317 23.6244Z" fill="black"/>
</svg>
