<svg width="77" height="50" viewBox="0 0 77 50" fill="none" xmlns="http://www.w3.org/2000/svg">
<path d="M12.8735 21.3041V20.2068C12.8735 19.0292 12.3917 18.6545 11.8297 18.8418C10.9732 19.1095 10.6788 19.6983 10.6788 20.7421V27.8613C10.6788 28.9051 10.9465 29.3333 11.8297 29.0657C12.6058 28.8248 12.8735 28.236 12.8735 27.326V25.6399L15.0146 24.9708V26.5766C15.0146 28.5572 13.9708 30.4842 11.8297 31.1533C9.58152 31.8491 8.53772 30.5645 8.53772 28.5839V21.3577C8.53772 19.3771 9.58152 17.4501 11.8297 16.7543C13.9708 16.0852 15.0146 17.5037 15.0146 19.618V20.6618L12.8735 21.3041Z" fill="black"/>
<path d="M19.2433 14.6399L21.3844 13.9708V24.5426C21.3844 25.5864 21.7591 25.9611 22.5353 25.7202C23.3114 25.4793 23.6861 24.8637 23.6861 23.8199V13.2482L25.8272 12.5791V23.0706C25.8272 25.4793 24.5693 27.1922 22.5353 27.8078C20.5012 28.4234 19.2433 27.5134 19.2433 25.1046V14.6399Z" fill="black"/>
<path d="M32.2238 16.8881L32.9732 16.6472C34.1241 16.2993 34.5523 15.6569 34.5523 13.9976C34.5523 12.3382 34.1241 11.9903 32.9732 12.3382L32.2238 12.5791V16.8881ZM32.2238 24.6229L30.0827 25.292V11.2676L33.0803 10.3309C35.4891 9.58151 36.6934 10.3577 36.6934 13.3285C36.6934 15.5766 35.9173 16.7275 35.1946 17.3431L37.0146 23.1241L34.82 23.7932L33.2944 18.4672C33.0268 18.601 32.5718 18.7348 32.1971 18.8686L32.2238 24.6229Z" fill="black"/>
<path d="M43.1971 22.1338L44.0803 22.4015C45.2311 22.7494 45.6326 22.1606 45.6326 20.7421C45.6326 19.2968 45.1508 18.4404 43.8662 18.0389L43.1703 17.8248L43.1971 22.1338ZM43.1971 15.8443L43.9732 16.0852C44.8029 16.326 45.4185 15.9246 45.4185 14.747C45.4185 13.4623 44.9635 12.6326 44.0268 12.3382L43.1971 12.0973V15.8443ZM41.056 9.42093L44.2409 10.4112C46.5426 11.1338 47.5596 12.7664 47.5596 15.1484C47.5596 16.3528 47.1046 17.4769 46.0876 17.6107C47.1849 18.4939 47.8273 19.6715 47.8273 21.4647C47.8273 23.7664 46.9173 25.2384 44.4818 24.4623L41.0827 23.3917L41.056 9.42093Z" fill="black"/>
<path d="M51.8954 26.8443V12.8199L57.6229 14.6131V16.7007L54.0365 15.5766V19.1898L56.7932 20.0462V22.1338L54.0365 21.2774V25.399L57.8637 26.6034V28.691L51.8954 26.8443Z" fill="black"/>
<path d="M64.0462 28.6642L64.7956 28.9051C65.9465 29.253 66.3479 28.9051 66.3479 27.4331V21.3041C66.3479 19.8321 65.9465 19.2165 64.7956 18.8686L64.0462 18.6277V28.6642ZM61.9051 15.9513L65.09 16.9416C67.2847 17.6375 68.489 19.3504 68.489 22.2409V27.781C68.489 30.6448 67.3114 31.6618 65.09 30.9659L61.9051 29.9757V15.9513Z" fill="black"/>
<path d="M38.5134 0L37.9246 0.187348L1.39173 11.5888L0 12.017V39.691H77V12.017L75.6083 11.5888L39.1022 0.187348L38.5134 0ZM38.5134 2.08759L75.0462 13.4891V37.7372H2.0073V13.4623L38.5134 2.08759Z" fill="black"/>
</svg>
