<svg version="1.1" id="Layer_1" xmlns="http://www.w3.org/2000/svg" xmlns:xlink="http://www.w3.org/1999/xlink" x="0px" y="0px"
	 width="124" height="50" viewBox="0 0 761.5 150" style="enable-background:new 0 0 761.5 150;" xml:space="preserve">
<path d="M77.7,95.8c0,23.2-8.7,37-23.2,37c-15.5,0-25.2-12.3-25.2-35.4c0-23.2,9.5-36.6,24-36.6C68.9,60.8,77.7,76.9,77.7,95.8
	 M79.7,148.1h39.9v-15.2h-6.8c-8.3,0-10.3-2.4-10.3-12.2V3.1H56.9v16h9.9c8.3,0,10.2,2.2,10.4,12.2v31.1
	c-4.9-8.9-16.1-16.8-30.7-16.8C20.3,45.6,0,67.9,0,98.2C0,129.5,19.3,150,43.4,150c17.8,0,31.1-10.6,36.3-24.8V148.1z M204.1,97.8
	c0,23.2-7.1,38.6-24.8,38.6s-24.8-15.5-24.8-38.6c0-23.2,7.1-38.6,24.8-38.6C197,59.2,204.1,74.6,204.1,97.8 M233.4,97.8
	c0-30.3-22.6-52.2-54.1-52.2s-54.1,22-54.1,52.2c0,30.3,22.6,52.2,54.1,52.2S233.4,128,233.4,97.8 M374.8,148.1h58.5v-15.2h-8.8
	c-8.3,0-10.3-2.4-10.3-12.2V78.6c0-23.6-12.2-33-27.8-33c-15,0-27.6,9.4-36.8,24.2c-2.5-17.5-12.5-24.2-26.1-24.2
	c-15.4,0-26.4,8.9-36,24.2V47.3h-44.6v15.2h9.2c8.3,0,10.2,2.2,10.4,12.2v46.1c-0.2,9.8-2.2,12.2-10.4,12.2h-9.2v15.2h58.5v-14.8
	H298c-8.3,0-10.3-2.4-10.3-12.2v-27c0-16.5,8.2-29.3,22.1-29.3c11.5,0,15.7,6.2,15.7,18.7v37.6c-0.2,9.8-2.2,12.2-10.4,12.2h-3.5
	v14.8h53.2v-14.8h-3.9c-8.3,0-10.3-2.4-10.3-12.2v-27c0-16.5,8.2-29.3,22.1-29.3c11.5,0,16.5,6.2,16.5,18.7v37.6
	c-0.2,9.8-2.2,12.2-10.4,12.2h-3.9v14.7H374.8z M489.3,16.6c0-9.2-7.4-16.6-16.6-16.6s-16.6,7.4-16.6,16.6s7.4,16.6,16.6,16.6
	C481.8,33.2,489.3,25.7,489.3,16.6 M444.3,148.1h63.1v-15.2h-8.8c-8.3,0-10.2-2.4-10.4-12.2V47.3h-43.9v15.2h8.6
	c8.3,0,10.2,2.2,10.5,12.2v46.1c-0.2,9.8-2.2,12.2-10.5,12.2h-8.6L444.3,148.1L444.3,148.1z M589.1,148.1h59.3v-15.2h-9.2
	c-8.3,0-10.3-2.4-10.3-12.2V78.6c0-23.6-12.2-33-27.8-33c-15.4,0-28.3,9.9-37.6,25.4V47.3h-44.6v15.2h9.2c8.3,0,10.2,2.2,10.4,12.2
	v46.1c-0.2,9.8-2.2,12.2-10.4,12.2h-9.2v15.2h59.3v-14.8H574c-8.3,0-10.3-2.4-10.3-12.2v-27c0-16.5,9.8-29.3,23.7-29.3
	c11.5,0,16.5,6.2,16.5,18.7v37.6c-0.2,9.8-2.2,12.2-10.4,12.2h-4.3v14.7H589.1z M732.1,97.8c0,23.2-7.1,38.6-24.8,38.6
	s-24.8-15.5-24.8-38.6c0-23.2,7.1-38.6,24.8-38.6C725,59.2,732.1,74.6,732.1,97.8 M761.5,97.8c0-30.3-22.6-52.2-54.1-52.2
	c-31.6,0-54.1,22-54.1,52.2c0,30.3,22.6,52.2,54.1,52.2S761.5,128,761.5,97.8"/>
</svg>
